<svg width="160" height="115" viewBox="0 0 160 115" fill="none" xmlns="http://www.w3.org/2000/svg">
<path d="M20.3145 82.4609C25.6395 82.4609 28.8848 85.4492 30.4043 89.0869L30.5771 89.498L30.1865 89.7158L28.2617 90.791L27.7695 91.0654L27.5557 90.5439C27.0234 89.2499 26.2141 88.0297 25.0488 87.1338C23.8894 86.2425 22.3501 85.6514 20.3145 85.6514C18.2691 85.6514 16.7066 86.2357 15.6621 87.168C14.6221 88.0964 14.0528 89.4069 14.0527 90.9541C14.0527 91.783 14.2268 92.4441 14.5322 92.9951C14.8389 93.5483 15.2932 94.0186 15.8945 94.4404C16.8118 95.0838 18.0275 95.5898 19.4883 96.1045L21.0293 96.627C23.6678 97.5038 26.2261 98.3851 28.1172 99.7256C30.0458 101.093 31.3027 102.954 31.3027 105.744C31.3026 108.481 30.2723 110.692 28.4297 112.209C26.5987 113.716 24.0142 114.5 20.9609 114.5C15.323 114.5 11.1932 111.704 9.64648 107.403H8.16504L9.74609 106.473L11.7168 105.312L12.2744 104.984L12.4512 105.607C12.9355 107.312 13.889 108.728 15.291 109.721C16.6948 110.715 18.5793 111.306 20.9561 111.306C23.3329 111.306 25.0906 110.683 26.2451 109.705C27.3921 108.733 27.9902 107.373 27.9902 105.788C27.9902 104.168 27.2975 103.063 26.042 102.163C24.7504 101.238 22.8867 100.548 20.5908 99.8164L20.5879 99.8154C18.1087 99.006 15.6523 98.2213 13.8291 96.9561C11.9615 95.6599 10.7393 93.8482 10.7393 91.043C10.7394 88.4266 11.7979 86.2676 13.541 84.7695C15.2774 83.2772 17.6672 82.461 20.3145 82.4609ZM60.749 82.9277V103.464C60.749 105.812 61.4759 107.761 62.8301 109.121C64.183 110.48 66.2167 111.306 68.9375 111.306C71.6585 111.306 73.7041 110.479 75.0684 109.119C76.4333 107.758 77.1699 105.81 77.1699 103.464V82.9277H80.4385V103.464C80.4385 106.765 79.2915 109.536 77.2549 111.479C75.2206 113.421 72.3396 114.5 68.9375 114.5C65.5353 114.5 62.6641 113.423 60.6406 111.48C58.6151 109.536 57.4805 106.765 57.4805 103.464V82.9277H60.749ZM141.532 82.457C150.456 82.4573 157.482 89.6073 157.482 98.4766C157.482 107.346 150.456 114.5 141.532 114.5C132.609 114.5 125.582 107.349 125.582 98.4766C125.582 89.6072 132.609 82.457 141.532 82.457ZM98.2148 82.9277C106.791 82.928 112.84 89.9453 112.84 98.4766C112.84 107.008 106.791 114.025 98.2148 114.025H86.459V82.9277H98.2148ZM120.846 82.9277V114.025H117.577V82.9277H120.846ZM54.2051 82.9277V86.0771H44.7871V114.021H41.4736V86.0771H32.0586V82.9277H54.2051ZM141.535 85.6475C134.415 85.6476 128.854 91.3489 128.854 98.4766C128.855 105.604 134.415 111.306 141.535 111.306C148.656 111.306 154.217 105.604 154.217 98.4766C154.217 91.3488 148.656 85.6475 141.535 85.6475ZM89.7314 110.872H98.2178C104.951 110.872 109.614 105.389 109.615 98.4766L109.602 97.833C109.322 91.2258 104.742 86.0771 98.2178 86.0771H89.7314V110.872ZM24.1133 9.5V34.3984L41.4131 9.71289L41.5625 9.5H58.2607L57.7207 10.2832L37.835 39.1455L58.5742 69.5459L59.1074 70.3281H43.1748V71.4395L42.2627 70.1152L24.1133 43.7471V70.332H9.5V9.5H24.1133ZM97.835 9.5L97.9502 9.83984L118.203 69.6709L118.427 70.332H102.475L102.363 69.9824L99.4971 60.9307H78.0986L75.2314 69.9824L75.1211 70.332H59.1689L59.3926 69.6709L79.6455 9.83984L79.7607 9.5H97.835ZM159.5 9.5V23.6621H136.948V34.2021H159.072V48.3643H136.948V70.332H122.336V9.5H159.5ZM82.5029 47.1084H95.0889L88.7959 27.293L82.5029 47.1084Z" stroke="black" stroke-opacity="0.3"/>
<path d="M32.6747 59.8316L13.613 32.1392V59.8316H0V0H13.613V25.9841L31.8223 0H47.3094L27.2293 29.1451L48.1615 59.8279H32.6747V59.8316Z" fill="#C13131"/>
<path d="M67.7322 50.4303L64.755 59.8316H49.8659L70.119 0H87.4766L107.73 59.8316H92.8403L89.8634 50.4303H67.7322ZM85.7721 37.6088L78.796 15.6416L71.8198 37.6088H85.7758H85.7721Z" fill="#C13131"/>
<path d="M126.448 13.1625V24.7019H148.572V37.8647H126.448V59.8316H112.836V0H149V13.1625H126.448Z" fill="#C13131"/>
<path d="M0 96.9035L1.97009 95.7438C2.99547 99.353 6.03547 101.806 10.9565 101.806C15.8779 101.806 18.4899 99.227 18.4899 95.7881C18.4899 92.1752 15.3211 90.8003 10.7427 89.3404C5.7366 87.706 1.23957 86.2867 1.23957 81.0434C1.23957 76.0999 5.22028 72.9613 10.3147 72.9613C15.4094 72.9613 18.4899 75.7998 19.9433 79.2793L18.0177 80.354C16.9037 77.6453 14.5942 75.1513 10.3147 75.1513C6.03547 75.1513 3.55267 77.6005 3.55267 80.9544C3.55267 84.5636 6.5923 85.6827 10.8719 87.1019C16.1804 88.8661 20.803 90.5408 20.803 95.7438C20.803 100.946 16.9073 104 10.9605 104C5.35309 104 1.3724 101.161 0.0036541 96.9035H0Z" fill="#343434"/>
<path d="M34.2868 75.5773V103.522H31.9737V75.5773H22.5589V73.4279H43.7049V75.5773H34.2868Z" fill="#343434"/>
<path d="M47.9808 93.4643V73.4279H50.2494V93.4643C50.2494 98.3671 53.2894 101.806 58.9373 101.806C64.5853 101.806 67.6694 98.3671 67.6694 93.4643V73.4279H69.9384V93.4643C69.9384 99.827 65.5296 104 58.9373 104C52.345 104 47.9808 99.8306 47.9808 93.4643Z" fill="#343434"/>
<path d="M102.34 88.4764C102.34 96.7734 96.4743 103.525 88.2144 103.525H76.9587V73.4279H88.2144C96.4743 73.4279 102.34 80.1795 102.34 88.4764ZM100.115 88.4764C100.115 81.3396 95.2789 75.5773 88.2181 75.5773H79.2313V101.372H88.2181C95.2789 101.372 100.115 95.61 100.115 88.4728V88.4764Z" fill="#343434"/>
<path d="M110.345 73.4279V103.525H108.077V73.4279H110.345Z" fill="#343434"/>
<path d="M116.082 88.4764C116.082 79.8793 122.888 72.9573 131.532 72.9573C140.176 72.9573 146.982 79.8793 146.982 88.4764C146.982 97.0736 140.176 104 131.532 104C122.888 104 116.082 97.0772 116.082 88.4764ZM144.717 88.4764C144.717 81.0801 138.94 75.1473 131.535 75.1473C124.132 75.1473 118.354 81.0801 118.354 88.4764C118.354 95.8728 124.132 101.806 131.535 101.806C138.94 101.806 144.717 95.8728 144.717 88.4764Z" fill="#343434"/>
</svg>
